<mxfile host="app.diagrams.net" modified="2023-05-14T15:42:17.947Z" agent="Mozilla/5.0 (X11; Linux x86_64) AppleWebKit/537.36 (KHTML, like Gecko) Chrome/113.0.0.0 Safari/537.36" version="21.1.2" etag="pqPxPB534HlpMVJ9JqOg" type="github">
  <diagram name="Page-1" id="ICL1FnLUgj0KGathMijP">
    <mxGraphModel>
      <root>
        <mxCell id="0" />
        <mxCell id="1" parent="0" />
      </root>
    </mxGraphModel>
  </diagram>
</mxfile>
